# xmcd
#
# Track frame offsets:
# 150
# 40417
# 63628
# 77012
# 124070
# 153473
# 174476
# 203804
#
# Disc length: 4737 seconds
#
#
# Revision: 0
# Processed by: cddbd v1.5.2PL0 Copyright (c) Steve Scherf et al.
# Submitted via: FreeRIP 2.943 
#
DISCID=69127f08
DTITLE=gasp - s-t
DYEAR=2004
DGENRE=Opera
TTITLE0=suffocate
TTITLE1=asphyxiate
TTITLE2=anaphylaxis
TTITLE3=choke
TTITLE4=strangle
TTITLE5=drown
TTITLE6=altitude sickness
TTITLE7=lung collapse-last breath
EXTD=qq
EXTT0=
EXTT1=
EXTT2=
EXTT3=
EXTT4=
EXTT5=
EXTT6=
EXTT7=
PLAYORDER=
